HIERARCHY
ROOT hip
{
	OFFSET	0.00  0.00  0.00 
	CHANNELS 6 Xposition Yposition Zposition Xrotation Zrotation Yrotation
	JOINT waist
	{
		OFFSET	0.000000 2.191865 -0.079388
		CHANNELS 3 Xrotation Zrotation Yrotation
		JOINT abdomen
		{
			OFFSET	0.000000 2.770984 0.119082
			CHANNELS 3 Xrotation Zrotation Yrotation
			JOINT chest
			{
				OFFSET	0.000000 2.879627 -0.290598
				CHANNELS 3 Xrotation Zrotation Yrotation
				JOINT neck
				{
					OFFSET	0.000000 12.342733 -1.613748
					CHANNELS 3 Xrotation Zrotation Yrotation
					JOINT head
					{
						OFFSET	0.000000 4.485597 1.807195
						CHANNELS 3 Xrotation Zrotation Yrotation
						End Site
						{
							OFFSET 0.000000 7.191734 2.024398
						}
					}
				}
				JOINT lCollar
				{
					OFFSET	1.858774 10.237258 -1.915852
					CHANNELS 3 Zrotation Yrotation Xrotation
					JOINT lShldr
					{
						OFFSET	6.103279 0.000102 -0.038601
						CHANNELS 3 Zrotation Yrotation Xrotation
						JOINT lForeArm
						{
							OFFSET	10.574100 -0.365985 -0.655940
							CHANNELS 3 Zrotation Yrotation Xrotation
							JOINT lHand
							{
								OFFSET	13.213392 -0.641131 0.276866
								CHANNELS 3 Zrotation Yrotation Xrotation
								JOINT lThumb1
								{
									OFFSET	1.920964 -1.225712 1.722395
									CHANNELS 3 Zrotation Yrotation Xrotation
									JOINT lThumb2
									{
										OFFSET	0.248544 -0.143036 0.768265
										CHANNELS 3 Zrotation Yrotation Xrotation
										JOINT lThumb3
										{
											OFFSET	0.628484 -0.225174 0.508305
											CHANNELS 3 Zrotation Yrotation Xrotation
											End Site
											{
												OFFSET 0.831712 -0.207978 0.609962
											}
										}
									}
								}
								JOINT lIndex1
								{
									OFFSET	5.093442 -0.710319 1.829884
									CHANNELS 3 Zrotation Yrotation Xrotation
									JOINT lIndex2
									{
										OFFSET	0.889470 -0.051998 0.127073
										CHANNELS 3 Zrotation Yrotation Xrotation
										JOINT lIndex3
										{
											OFFSET	0.889570 -0.155981 0.127073
											CHANNELS 3 Zrotation Yrotation Xrotation
											End Site
											{
												OFFSET 0.797115 -0.294470 0.076252
											}
										}
									}
								}
								JOINT lMid1
								{
									OFFSET	5.154641 -0.519844 0.864111
									CHANNELS 3 Zrotation Yrotation Xrotation
									JOINT lMid2
									{
										OFFSET	0.928821 -0.051992 0.050831
										CHANNELS 3 Zrotation Yrotation Xrotation
										JOINT lMid3
										{
											OFFSET	0.984253 -0.311865 0.050831
											CHANNELS 3 Zrotation Yrotation Xrotation
											End Site
											{
												OFFSET 0.779717 -0.606438 -0.050831
											}
										}
									}
								}
								JOINT lRing1
								{
									OFFSET	4.924408 -0.754930 -0.235503
									CHANNELS 3 Zrotation Yrotation Xrotation
									JOINT lRing2
									{
										OFFSET	0.981624 -0.036924 -0.108278
										CHANNELS 3 Zrotation Yrotation Xrotation
										JOINT lRing3
										{
											OFFSET	0.805613 -0.205247 -0.041717
											CHANNELS 3 Zrotation Yrotation Xrotation
											End Site
											{
												OFFSET 0.667431 -0.470481 -0.035991
											}
										}
									}
								}
								JOINT lPinky1
								{
									OFFSET	4.535460 -0.816635 -1.006206
									CHANNELS 3 Zrotation Yrotation Xrotation
									JOINT lPinky2
									{
										OFFSET	0.690596 -0.064334 -0.168800
										CHANNELS 3 Zrotation Yrotation Xrotation
										JOINT lPinky3
										{
											OFFSET	0.598039 -0.111176 -0.071973
											CHANNELS 3 Zrotation Yrotation Xrotation
											End Site
											{
												OFFSET 0.422025 -0.290925 -0.035981
											}
										}
									}
								}
							}
						}
					}
				}
				JOINT rCollar
				{
					OFFSET	-1.858774 10.237258 -1.915852
					CHANNELS 3 Zrotation Yrotation Xrotation
					JOINT rShldr
					{
						OFFSET	-6.103279 0.000102 -0.038601
						CHANNELS 3 Zrotation Yrotation Xrotation
						JOINT rForeArm
						{
							OFFSET	-10.574100 -0.365985 -0.655940
							CHANNELS 3 Zrotation Yrotation Xrotation
							JOINT rHand
							{
								OFFSET	-13.213392 -0.641131 0.276866
								CHANNELS 3 Zrotation Yrotation Xrotation
								JOINT rIndex1
								{
									OFFSET	-5.093442 -0.710319 1.829884
									CHANNELS 3 Zrotation Yrotation Xrotation
									JOINT rIndex2
									{
										OFFSET	-0.889470 -0.051998 0.127073
										CHANNELS 3 Zrotation Yrotation Xrotation
										JOINT rIndex3
										{
											OFFSET	-0.889570 -0.155981 0.127073
											CHANNELS 3 Zrotation Yrotation Xrotation
											End Site
											{
												OFFSET -0.797115 -0.294470 0.076252
											}
										}
									}
								}
								JOINT rThumb1
								{
									OFFSET	-1.920964 -1.225712 1.722395
									CHANNELS 3 Zrotation Yrotation Xrotation
									JOINT rThumb2
									{
										OFFSET	-0.248544 -0.143036 0.768265
										CHANNELS 3 Zrotation Yrotation Xrotation
										JOINT rThumb3
										{
											OFFSET	-0.628484 -0.225174 0.508305
											CHANNELS 3 Zrotation Yrotation Xrotation
											End Site
											{
												OFFSET -0.831712 -0.207978 0.609962
											}
										}
									}
								}
								JOINT rMid1
								{
									OFFSET	-5.154641 -0.519844 0.864111
									CHANNELS 3 Zrotation Yrotation Xrotation
									JOINT rMid2
									{
										OFFSET	-0.928821 -0.051992 0.050831
										CHANNELS 3 Zrotation Yrotation Xrotation
										JOINT rMid3
										{
											OFFSET	-0.984253 -0.311865 0.050831
											CHANNELS 3 Zrotation Yrotation Xrotation
											End Site
											{
												OFFSET -0.779717 -0.606438 -0.050831
											}
										}
									}
								}
								JOINT rRing1
								{
									OFFSET	-4.924408 -0.754930 -0.235503
									CHANNELS 3 Zrotation Yrotation Xrotation
									JOINT rRing2
									{
										OFFSET	-0.981624 -0.036924 -0.108278
										CHANNELS 3 Zrotation Yrotation Xrotation
										JOINT rRing3
										{
											OFFSET	-0.805613 -0.205247 -0.041717
											CHANNELS 3 Zrotation Yrotation Xrotation
											End Site
											{
												OFFSET -0.667431 -0.470481 -0.035991
											}
										}
									}
								}
								JOINT rPinky1
								{
									OFFSET	-4.535460 -0.816635 -1.006206
									CHANNELS 3 Zrotation Yrotation Xrotation
									JOINT rPinky2
									{
										OFFSET	-0.690596 -0.064334 -0.168800
										CHANNELS 3 Zrotation Yrotation Xrotation
										JOINT rPinky3
										{
											OFFSET	-0.598039 -0.111176 -0.071973
											CHANNELS 3 Zrotation Yrotation Xrotation
											End Site
											{
												OFFSET -0.422025 -0.290925 -0.035981
											}
										}
									}
								}
							}
						}
					}
				}
			}
		}
	}
	JOINT lThigh
	{
		OFFSET	5.761895 -0.730553 0.000101
		CHANNELS 3 Xrotation Zrotation Yrotation
		JOINT lShin
		{
			OFFSET	-1.171020 -18.459274 1.627449
			CHANNELS 3 Xrotation Zrotation Yrotation
			JOINT lFoot
			{
				OFFSET	-0.883715 -16.872776 -3.357785
				CHANNELS 3 Xrotation Zrotation Yrotation
				JOINT lToe
				{
					OFFSET	1.287613 -2.778491 2.836049
					CHANNELS 3 Xrotation Yrotation Zrotation
					End Site
					{
						OFFSET 1.362641 -0.436631 3.828194
					}
				}
			}
		}
	}
	JOINT rThigh
	{
		OFFSET	-5.761895 -0.730553 0.000101
		CHANNELS 3 Xrotation Zrotation Yrotation
		JOINT rShin
		{
			OFFSET	1.171020 -18.459274 1.627449
			CHANNELS 3 Xrotation Zrotation Yrotation
			JOINT rFoot
			{
				OFFSET	0.883715 -16.872776 -3.357785
				CHANNELS 3 Xrotation Zrotation Yrotation
				JOINT rToe
				{
					OFFSET	-1.287613 -2.778491 2.836049
					CHANNELS 3 Xrotation Yrotation Zrotation
					End Site
					{
						OFFSET -1.362641 -0.436631 3.828194
					}
				}
			}
		}
	}
}
MOTION
Frames:     4
Frame Time: 0.033333
-36.480244 36.115250 -4.645207 69.095276 -22.991291 -34.462276 -11.660330 0.682968 -0.029235 -4.218750 -0.019201 -0.003578 22.195110 -29.449059 -12.750921 -27.440086 28.798262 -9.054155 -9.426673 -11.498503 20.024876 17.043030 -8.596692 -0.970257 23.230101 -18.750912 -56.461113 2.963326 2.163352 46.065933 -6.348527 -12.377047 -3.481475 -0.018104 -0.003944 -0.010280 -0.015681 -0.006574 -0.010607 -0.015424 -0.007546 -0.010088 -5.627441 -9.626149 0.225168 5.883113 -2.462890 -1.279084 5.753754 -4.259270 -2.131546 -3.404094 -3.548860 -0.022214 6.930795 1.287455 0.036015 17.368288 -7.523004 -4.751523 -8.804057 0.885197 -0.805234 10.993954 5.617076 1.992578 23.416513 -1.549249 0.204120 -12.749164 -4.144636 -3.893468 4.013253 13.071599 2.893945 29.059664 -4.419006 -0.490039 -12.793646 0.026215 1.515774 31.164206 -37.301392 -17.029079 0.186043 43.603897 2.083937 -4.397326 -7.552040 -1.488820 5.371086 9.745362 0.182905 -5.980333 2.460839 -1.288811 -5.814634 4.377452 -2.177860 -0.001427 -0.010679 0.002670 -0.003851 -0.011809 -0.004022 -0.004104 -0.011405 -0.005351 3.462921 3.616970 -0.022343 -6.909909 -1.118906 -0.014015 -17.471909 7.588184 -4.795341 9.210763 -0.713480 -0.842483 -10.934525 -5.588952 1.983351 -23.503174 1.466422 0.271036 13.199415 4.524673 -4.037564 -3.862419 -13.035691 2.868390 -0.019979 -0.021404 0.003737 -82.910294 20.327162 -9.413207 48.585087 17.831369 1.954917 13.951807 11.183958 -10.250546 4.631858 22.857437 0.916780 -30.062086 -3.743621 -14.193184 57.210663 -6.766081 -8.735177 101.158424 -40.833488 -68.117714 8.272758 4.901990 3.586452 
-35.931881 37.410278 -2.484335 76.976181 -24.607021 -39.564018 -11.660330 0.682968 -0.029235 -4.218750 -0.019201 -0.003578 19.632368 -29.469307 -10.734989 -34.191486 31.735212 -14.255159 -7.681582 -16.310963 21.835627 17.482388 -9.573996 -1.280283 24.328661 -18.751451 -59.166519 4.026562 1.404481 47.643841 -5.944331 -13.327435 -3.622156 -0.018104 -0.003944 -0.010280 -0.015681 -0.006574 -0.010607 -0.015424 -0.007546 -0.010088 -5.627441 -9.626149 0.225168 5.883113 -2.462890 -1.279084 5.753754 -4.259270 -2.131546 -3.404094 -3.548860 -0.022214 6.930795 1.287455 0.036015 17.368288 -7.523004 -4.751523 -8.804057 0.885197 -0.805234 10.993954 5.617076 1.992578 23.416513 -1.549249 0.204120 -12.749164 -4.144636 -3.893468 4.013253 13.071599 2.893945 29.059664 -4.419006 -0.490039 -13.585132 0.476467 1.344957 25.098259 -36.354610 -20.110439 2.164159 50.182831 4.949452 -3.440965 -7.168305 -1.492696 5.371086 9.745362 0.182905 -5.980333 2.460839 -1.288811 -5.814634 4.377452 -2.177860 -0.001427 -0.010679 0.002670 -0.003851 -0.011809 -0.004022 -0.004104 -0.011405 -0.005351 3.462921 3.616970 -0.022343 -6.909909 -1.118906 -0.014015 -17.471909 7.588184 -4.795341 9.210763 -0.713480 -0.842483 -10.934525 -5.588952 1.983351 -23.503174 1.466422 0.271036 13.199415 4.524673 -4.037564 -3.862419 -13.035691 2.868390 -0.019979 -0.021404 0.003737 -84.181717 25.189646 -11.168758 41.887508 18.131966 0.903430 15.265738 10.806087 -8.669518 4.631858 22.857437 0.916780 -28.125048 -8.246066 -13.912338 61.681091 -8.233818 -8.640299 118.588837 -41.074841 -80.381538 8.272758 4.901990 3.586452 
-35.256100 39.169914 0.050461 85.679253 -26.112219 -45.307072 -11.660330 0.682968 -0.029235 -4.218750 -0.019201 -0.003578 16.948099 -29.558796 -9.167435 -42.037590 34.455006 -20.834354 -5.354842 -22.422234 23.506052 19.553202 -9.948790 -1.785929 25.372581 -18.856451 -62.490387 5.118042 -0.104697 49.202106 -5.547235 -14.277635 -3.760487 -0.018104 -0.003944 -0.010280 -0.015681 -0.006574 -0.010607 -0.015424 -0.007546 -0.010088 -5.627441 -9.626149 0.225168 5.883113 -2.462890 -1.279084 5.753754 -4.259270 -2.131546 -3.404094 -3.548860 -0.022214 6.930795 1.287455 0.036015 17.368288 -7.523004 -4.751523 -8.804057 0.885197 -0.805234 10.993954 5.617076 1.992578 23.416513 -1.549249 0.204120 -12.749164 -4.144636 -3.893468 4.013253 13.071599 2.893945 29.059664 -4.419006 -0.490039 -14.005277 1.170413 1.152339 19.059452 -33.814857 -22.880297 5.364800 54.836376 6.907081 -2.768129 -6.941770 -1.490012 5.371086 9.745362 0.182905 -5.980333 2.460839 -1.288811 -5.814634 4.377452 -2.177860 -0.001427 -0.010679 0.002670 -0.003851 -0.011809 -0.004022 -0.004104 -0.011405 -0.005351 3.462921 3.616970 -0.022343 -6.909909 -1.118906 -0.014015 -17.471909 7.588184 -4.795341 9.210763 -0.713480 -0.842483 -10.934525 -5.588952 1.983351 -23.503174 1.466422 0.271036 13.199415 4.524673 -4.037564 -3.862419 -13.035691 2.868390 -0.019979 -0.021404 0.003737 -84.716583 30.707453 -12.759785 32.423248 18.073330 -1.328123 16.654150 9.934964 -7.453858 4.631858 22.857437 0.916780 -25.880449 -12.285942 -14.134319 66.413788 -9.673718 -9.646727 132.792175 -36.926033 -93.210587 8.272758 4.901990 3.586452 
-34.422714 41.049114 2.941335 95.058006 -27.055267 -51.314228 -11.660330 0.682968 -0.029235 -4.218750 -0.019201 -0.003578 13.743677 -29.693481 -7.998535 -49.669914 36.051529 -27.377422 -2.811703 -28.788652 24.511675 23.401903 -9.683342 -2.447590 26.101210 -19.289463 -65.803520 6.017449 -1.844194 50.659027 -5.180132 -15.111356 -3.885872 -0.018104 -0.003944 -0.010280 -0.015681 -0.006574 -0.010607 -0.015424 -0.007546 -0.010088 -5.627441 -9.626149 0.225168 5.883113 -2.462890 -1.279084 5.753754 -4.259270 -2.131546 -3.404094 -3.548860 -0.022214 6.930795 1.287455 0.036015 17.368288 -7.523004 -4.751523 -8.804057 0.885197 -0.805234 10.993954 5.617076 1.992578 23.416513 -1.549249 0.204120 -12.749164 -4.144636 -3.893468 4.013253 13.071599 2.893945 29.059664 -4.419006 -0.490039 -14.444932 2.001124 0.920778 13.543572 -29.918690 -26.016031 8.695926 58.191711 8.692656 -2.019852 -6.860600 -1.465836 5.371086 9.745362 0.182905 -5.980333 2.460839 -1.288811 -5.814634 4.377452 -2.177860 -0.001427 -0.010679 0.002670 -0.003851 -0.011809 -0.004022 -0.004104 -0.011405 -0.005351 3.462921 3.616970 -0.022343 -6.909909 -1.118906 -0.014015 -17.471909 7.588184 -4.795341 9.210763 -0.713480 -0.842483 -10.934525 -5.588952 1.983351 -23.503174 1.466422 0.271036 13.199415 4.524673 -4.037564 -3.862419 -13.035691 2.868390 -0.019979 -0.021404 0.003737 -85.027817 35.869354 -14.155260 22.865137 17.680218 -4.361758 19.760845 9.181663 -7.325548 4.631858 22.857437 0.916780 -23.166655 -16.232384 -14.819463 70.556915 -11.146710 -11.435035 142.051498 -29.671022 -105.617706 8.272758 4.901990 3.586452 
